<svg width="27" height="31" viewBox="0 0 27 31" fill="none" xmlns="http://www.w3.org/2000/svg">
<path d="M13.423 0.877777C9.12213 0.877777 5.62305 4.42627 5.62305 8.78793C5.62305 13.1496 9.12213 16.6981 13.423 16.6981C17.724 16.6981 21.223 13.1496 21.223 8.78793C21.223 4.42627 17.724 0.877777 13.423 0.877777Z" fill="black"/>
<path d="M23.1285 21.8658C20.9931 19.6669 18.1621 18.4559 15.1572 18.4559H11.6905C8.68559 18.4559 5.85459 19.6669 3.71913 21.8658C1.59412 24.0539 0.423828 26.9422 0.423828 29.9989C0.423828 30.4843 0.811864 30.8778 1.29049 30.8778H25.5572C26.0358 30.8778 26.4238 30.4843 26.4238 29.9989C26.4238 26.9422 25.2535 24.0539 23.1285 21.8658Z" fill="black"/>
</svg>
