<svg width="30" height="29" viewBox="0 0 30 29" fill="none" xmlns="http://www.w3.org/2000/svg">
<path d="M29.6219 8.61953C29.5539 7.13178 29.3047 6.10897 28.9478 5.22269C28.5796 4.28192 28.013 3.43965 27.2708 2.73947C26.5456 2.0284 25.6675 1.47586 24.7045 1.12588C23.7812 0.781235 22.7274 0.540649 21.1865 0.475054C19.6341 0.403903 19.1413 0.387451 15.204 0.387451C11.2667 0.387451 10.7739 0.403903 9.22725 0.469498C7.68637 0.535094 6.62703 0.775894 5.70931 1.12032C4.73473 1.47586 3.86238 2.02284 3.13719 2.73947C2.40072 3.43965 1.82867 4.28747 1.46597 5.21734C1.10902 6.10897 0.859841 7.12622 0.791903 8.61397C0.718212 10.1128 0.701172 10.5887 0.701172 14.3902C0.701172 18.1917 0.718212 18.6675 0.786149 20.1608C0.854087 21.6486 1.10349 22.6714 1.46044 23.5577C1.82867 24.4985 2.40072 25.3407 3.13719 26.0409C3.86238 26.752 4.74048 27.3045 5.70356 27.6545C6.62703 27.9991 7.68062 28.2397 9.22172 28.3053C10.7681 28.3711 11.2612 28.3874 15.1985 28.3874C19.1358 28.3874 19.6286 28.3711 21.1752 28.3053C22.7161 28.2397 23.7754 27.9991 24.6932 27.6545C26.6421 26.927 28.183 25.4392 28.9365 23.5577C29.2932 22.6661 29.5426 21.6486 29.6106 20.1608C29.6785 18.6675 29.6956 18.1917 29.6956 14.3902C29.6956 10.5887 29.6898 10.1128 29.6219 8.61953ZM27.0104 20.0514C26.9479 21.4189 26.7101 22.1573 26.5118 22.6496C26.0245 23.8694 25.0218 24.8375 23.7584 25.308C23.2485 25.4995 22.4782 25.7292 21.0675 25.7892C19.5379 25.855 19.0791 25.8713 15.2098 25.8713C11.3404 25.8713 10.8759 25.855 9.35184 25.7892C7.93555 25.7292 7.17075 25.4995 6.66089 25.308C6.03218 25.0837 5.45991 24.7281 4.99541 24.2632C4.51387 23.8092 4.14564 23.2622 3.91328 22.6552C3.715 22.1629 3.4771 21.4189 3.41492 20.057C3.34676 18.5802 3.32994 18.137 3.32994 14.4011C3.32994 10.6652 3.34676 10.2167 3.41492 8.74538C3.4771 7.37792 3.715 6.6395 3.91328 6.14721C4.14564 5.53998 4.51388 4.98765 5.00117 4.53896C5.4712 4.07402 6.03772 3.71849 6.66664 3.49435C7.1765 3.30291 7.94706 3.07322 9.35759 3.01296C10.8872 2.94737 11.3462 2.93092 15.2153 2.93092C19.0904 2.93092 19.5491 2.94737 21.0732 3.01296C22.4895 3.07322 23.2543 3.30291 23.7642 3.49435C24.3929 3.71849 24.9651 4.07402 25.4296 4.53896C25.9112 4.993 26.2794 5.53998 26.5118 6.14721C26.7101 6.6395 26.9479 7.38326 27.0104 8.74538C27.0783 10.2222 27.0953 10.6652 27.0953 14.4011C27.0953 18.137 27.0783 18.5746 27.0104 20.0514Z" fill="black"/>
<path d="M15.2056 7.19458C11.0928 7.19458 7.75586 10.4162 7.75586 14.3874C7.75586 18.3586 11.0928 21.5802 15.2056 21.5802C19.3186 21.5802 22.6553 18.3586 22.6553 14.3874C22.6553 10.4162 19.3186 7.19458 15.2056 7.19458ZM15.2056 19.0532C12.5374 19.0532 10.3731 16.9638 10.3731 14.3874C10.3731 11.811 12.5374 9.72159 15.2056 9.72159C17.8739 9.72159 20.038 11.811 20.038 14.3874C20.038 16.9638 17.8739 19.0532 15.2056 19.0532Z" fill="black"/>
<path d="M24.6875 6.91308C24.6875 7.84038 23.9088 8.59227 22.9481 8.59227C21.9877 8.59227 21.209 7.84038 21.209 6.91308C21.209 5.98556 21.9877 5.23389 22.9481 5.23389C23.9088 5.23389 24.6875 5.98556 24.6875 6.91308Z" fill="black"/>
</svg>
