<svg width="34" height="30" viewBox="0 0 34 30" fill="none" xmlns="http://www.w3.org/2000/svg">
<path d="M14.6484 29.8778C16.2503 29.8778 17.5488 28.5794 17.5488 26.9778C17.5488 25.3761 16.2503 24.0778 14.6484 24.0778C13.0466 24.0778 11.748 25.3761 11.748 26.9778C11.748 28.5794 13.0466 29.8778 14.6484 29.8778Z" fill="black"/>
<path d="M24.3809 29.8778C25.9827 29.8778 27.2812 28.5794 27.2812 26.9778C27.2812 25.3761 25.9827 24.0778 24.3809 24.0778C22.779 24.0778 21.4805 25.3761 21.4805 26.9778C21.4805 28.5794 22.779 29.8778 24.3809 29.8778Z" fill="black"/>
<path d="M1.04882 2.81117H5.08053L9.74807 19.1486L9.38198 19.8807C8.41802 21.8063 9.81735 24.0778 11.9765 24.0778H28.2479C28.7822 24.0778 29.2146 23.6454 29.2146 23.1111C29.2146 22.5768 28.7822 22.1444 28.2479 22.1444H11.9765C11.2585 22.1444 10.7893 21.3886 11.1116 20.7454L11.3788 20.2111H28.2479C28.6793 20.2111 29.0589 19.9251 29.1778 19.5097L33.045 5.97641C33.1281 5.68474 33.0696 5.37128 32.8874 5.12871C32.7042 4.88705 32.4181 4.7445 32.1151 4.7445H7.64381L6.73935 1.57919C6.62037 1.16385 6.24087 0.877777 5.80936 0.877777H1.04882C0.514444 0.877777 0.0820312 1.31013 0.0820312 1.84444C0.0820312 2.37875 0.514444 2.81117 1.04882 2.81117Z" fill="black"/>
</svg>
