<svg width="23" height="26" viewBox="0 0 23 26" fill="none" xmlns="http://www.w3.org/2000/svg">
<path d="M19.5766 5.631C19.4058 5.54269 19.2395 5.44589 19.0783 5.34096C18.6096 5.03112 18.1799 4.66604 17.7984 4.25357C16.8439 3.16145 16.4875 2.0535 16.3562 1.27777H16.3614C16.2517 0.633887 16.2971 0.217285 16.3039 0.217285H11.9565V17.0279C11.9565 17.2537 11.9565 17.4767 11.947 17.6971C11.947 17.7246 11.9444 17.7499 11.9428 17.7794C11.9428 17.7915 11.9428 17.8042 11.9402 17.8169C11.9402 17.82 11.9402 17.8232 11.9402 17.8263C11.8944 18.4295 11.701 19.0122 11.3771 19.5231C11.0533 20.034 10.6088 20.4575 10.0829 20.7563C9.53472 21.0681 8.91475 21.2317 8.2841 21.2309C6.25857 21.2309 4.61695 19.5792 4.61695 17.5395C4.61695 15.4997 6.25857 13.8481 8.2841 13.8481C8.66752 13.8477 9.04859 13.908 9.41314 14.0268L9.41842 9.60031C8.31172 9.45736 7.1874 9.54531 6.11639 9.85863C5.04538 10.1719 4.05092 10.7038 3.19576 11.4207C2.44644 12.0718 1.81648 12.8486 1.33424 13.7162C1.15072 14.0326 0.458321 15.3041 0.374473 17.3676C0.321739 18.5388 0.673477 19.7522 0.841172 20.2537V20.2643C0.946641 20.5596 1.35533 21.5673 2.02137 22.4169C2.55843 23.0983 3.19296 23.697 3.90451 24.1935V24.1829L3.91506 24.1935C6.01969 25.6237 8.35318 25.5298 8.35318 25.5298C8.75713 25.5134 10.1103 25.5298 11.647 24.8015C13.3513 23.9942 14.3217 22.7913 14.3217 22.7913C14.9415 22.0726 15.4345 21.2535 15.7792 20.3692C16.1726 19.3351 16.3039 18.0948 16.3039 17.5991V8.68063C16.3567 8.71227 17.0591 9.17686 17.0591 9.17686C17.0591 9.17686 18.0711 9.82549 19.6499 10.2479C20.7827 10.5485 22.3088 10.6118 22.3088 10.6118V6.29598C21.7741 6.35398 20.6883 6.18523 19.5766 5.631Z" fill="black"/>
</svg>
