<svg width="1281" height="186" viewBox="0 0 1281 186" fill="none" xmlns="http://www.w3.org/2000/svg">
<rect x="0.175781" y="0.122375" width="1280" height="185" fill="url(#paint0_linear_288_282)"/>
<path d="M621.56 136.887C616.893 136.887 614.56 134.741 614.56 130.447C614.56 129.047 614.886 127.414 615.54 125.547C616.193 123.681 617.406 121.207 619.18 118.127C621.606 113.927 625.013 108.981 629.4 103.287C633.88 97.594 638.64 92.0406 643.68 86.6273C648.066 81.6806 652.826 77.154 657.96 73.0473C663.186 68.8473 668.6 65.9539 674.2 64.3673C675.04 64.0873 676.02 63.8539 677.14 63.6673C678.26 63.4806 679.426 63.3873 680.64 63.3873C682.88 63.3873 684.793 63.7139 686.38 64.3673C687.126 64.7406 687.873 65.2539 688.62 65.9073C689.366 66.4673 689.88 67.3073 690.16 68.4273C689.133 67.5873 687.966 66.9806 686.66 66.6073C685.353 66.1406 683.766 65.9073 681.9 65.9073C677.046 65.9073 672.38 67.4939 667.9 70.6673C663.42 73.8406 658.94 77.9473 654.46 82.9873C650.073 87.9339 645.453 93.2073 640.6 98.8073C638.733 100.954 636.68 103.614 634.44 106.787C632.2 109.961 630.053 113.134 628 116.307C626.04 119.481 624.453 122.187 623.24 124.427C622.586 125.454 622.073 126.574 621.7 127.787C621.42 128.907 621.28 129.841 621.28 130.587C621.28 132.827 622.12 133.947 623.8 133.947C625.573 133.947 627.533 133.107 629.68 131.427C631.92 129.747 634.02 127.881 635.98 125.827C638.033 123.774 639.573 122.141 640.6 120.927C640.973 120.927 641.16 121.207 641.16 121.767C641.16 122.607 640.973 123.261 640.6 123.727C636.866 128.021 633.413 131.287 630.24 133.527C627.16 135.767 624.266 136.887 621.56 136.887ZM650.128 136.607C646.675 136.607 644.948 134.647 644.948 130.727C644.948 128.487 645.602 125.827 646.908 122.747C648.215 119.574 650.175 116.261 652.788 112.807C654.655 110.474 656.942 108.001 659.648 105.387C662.355 102.681 665.295 100.114 668.468 97.6873C671.735 95.2606 675.048 93.3006 678.408 91.8073C681.768 90.2206 685.035 89.4273 688.208 89.4273C689.608 89.4273 690.588 89.6606 691.148 90.1273C691.708 90.5006 692.082 90.9206 692.268 91.3873C692.455 91.7606 692.455 92.0406 692.268 92.2273C692.175 92.414 692.035 92.4606 691.848 92.3673C691.475 92.1806 690.728 92.0873 689.608 92.0873C686.248 92.0873 682.235 93.7206 677.568 96.9873C672.995 100.161 668.468 104.314 663.988 109.447C660.815 112.994 658.202 116.494 656.148 119.947C654.095 123.307 652.742 126.107 652.088 128.347C651.902 129.094 651.808 129.747 651.808 130.307C651.808 131.614 652.322 132.267 653.348 132.267C654.002 132.267 654.888 131.987 656.008 131.427C657.128 130.774 658.575 129.701 660.348 128.207C663.148 125.781 665.902 122.934 668.608 119.667C671.408 116.401 674.162 113.087 676.868 109.727C679.575 106.274 682.188 103.101 684.708 100.207C687.322 97.3139 689.795 95.1206 692.128 93.6273C695.115 91.6673 697.168 90.5473 698.288 90.2673C699.502 89.9873 700.482 89.8006 701.228 89.7073C700.762 90.2673 699.735 91.5739 698.148 93.6273C696.562 95.6806 694.882 97.874 693.108 100.207C691.335 102.447 689.888 104.314 688.768 105.807C687.088 108.234 685.268 110.847 683.308 113.647C681.442 116.447 679.715 119.107 678.128 121.627C676.635 124.054 675.608 126.061 675.048 127.647C674.582 129.234 674.348 130.401 674.348 131.147C674.348 132.641 674.955 133.387 676.168 133.387C677.008 133.387 677.988 133.061 679.108 132.407C680.322 131.661 681.535 130.821 682.748 129.887C684.335 128.581 685.828 127.227 687.228 125.827C688.628 124.334 690.075 122.701 691.568 120.927C691.942 120.927 692.128 121.207 692.128 121.767C692.128 122.607 691.942 123.261 691.568 123.727C690.355 125.127 688.862 126.667 687.088 128.347C685.408 130.027 683.728 131.521 682.048 132.827C680.835 133.854 679.435 134.741 677.848 135.487C676.262 136.234 674.722 136.607 673.228 136.607C671.082 136.607 669.588 136.094 668.748 135.067C667.908 134.041 667.488 132.734 667.488 131.147C667.488 129.281 667.908 127.274 668.748 125.127C669.588 122.887 670.522 120.787 671.548 118.827C670.335 120.321 668.795 122.141 666.928 124.287C665.062 126.341 663.382 128.067 661.888 129.467C659.835 131.334 657.875 133.014 656.008 134.507C654.142 135.907 652.182 136.607 650.128 136.607ZM722.327 140.807C721.487 140.154 721.067 139.174 721.067 137.867C721.067 136.561 721.534 135.254 722.467 133.947C723.307 132.547 724.894 131.521 727.227 130.867C728.44 130.494 730.027 130.307 731.987 130.307C735.254 130.307 739.36 130.774 744.307 131.707C749.347 132.641 755.6 133.621 763.067 134.647C764.747 134.834 766.474 135.021 768.247 135.207C770.02 135.394 771.887 135.487 773.847 135.487C775.06 135.487 776.274 135.441 777.487 135.347C778.7 135.254 779.914 135.114 781.127 134.927C787.194 133.901 792.7 131.474 797.647 127.647C802.594 123.727 806.187 118.781 808.427 112.807C809.174 110.847 809.547 108.701 809.547 106.367C809.547 104.034 808.987 101.934 807.867 100.067C806.747 98.1073 804.694 97.1273 801.707 97.1273C800.214 97.1273 798.814 97.3139 797.507 97.6873C796.2 97.9673 794.894 98.7139 793.587 99.9273C793.307 99.1806 793.167 98.5739 793.167 98.1073C793.167 96.5206 794.94 95.5873 798.487 95.3073C799.514 95.3073 800.54 95.2606 801.567 95.1673C802.594 94.9806 803.574 94.6539 804.507 94.1873C809.547 92.0406 813.374 89.4739 815.987 86.4873C818.694 83.4073 820.607 79.8606 821.727 75.8473C821.914 75.1006 822.054 74.4473 822.147 73.8873C822.24 73.2339 822.287 72.5806 822.287 71.9273C822.287 68.7539 821.12 66.0473 818.787 63.8073C815.24 66.9806 811.694 70.7139 808.147 75.0073C804.694 79.3006 801.334 83.734 798.067 88.3073C794.8 92.8806 791.72 97.2673 788.827 101.467C786.587 104.547 784.254 107.814 781.827 111.267C779.4 114.721 776.88 117.987 774.267 121.067C771.654 124.054 768.947 126.527 766.147 128.487C763.347 130.354 760.5 131.381 757.607 131.567C759.847 129.981 762.134 127.787 764.467 124.987C766.8 122.094 769.134 118.921 771.467 115.467C773.8 112.014 776.04 108.561 778.187 105.107C780.427 101.654 782.527 98.574 784.487 95.8673C788.874 89.5206 793.774 83.2673 799.187 77.1073C804.6 70.9473 810.06 65.7206 815.567 61.4273C813.607 60.4006 811.18 59.6073 808.287 59.0473C805.487 58.4873 802.174 58.2073 798.347 58.2073C792.094 58.2073 786.12 59.1873 780.427 61.1473C774.827 63.0139 769.694 65.4873 765.027 68.5673C760.36 71.6473 756.347 75.1006 752.987 78.9273C749.627 82.6606 747.014 86.3939 745.147 90.1273C743.28 93.8606 742.347 97.314 742.347 100.487C742.347 103.474 743.28 105.994 745.147 108.047C747.107 110.101 750.187 111.314 754.387 111.687C755.04 111.687 755.367 111.827 755.367 112.107C755.367 112.481 754.947 112.667 754.107 112.667C748.6 112.201 744.54 110.614 741.927 107.907C739.314 105.201 738.007 101.887 738.007 97.9673C738.007 93.7673 739.36 89.2873 742.067 84.5273C744.867 79.7673 748.88 75.2406 754.107 70.9473C759.334 66.654 765.634 63.1539 773.007 60.4473C780.38 57.7406 788.687 56.3873 797.927 56.3873C802.407 56.3873 806.327 56.6673 809.687 57.2273C813.047 57.6939 815.894 58.4406 818.227 59.4673C821.494 57.1339 824.714 55.3139 827.887 54.0073C831.154 52.7006 834.234 52.0473 837.127 52.0473C838.807 52.0473 840.487 52.3273 842.167 52.8873C843.847 53.354 845.247 54.1939 846.367 55.4073C847.58 56.6206 848.187 58.3939 848.187 60.7273C847.627 58.8606 846.32 57.3673 844.267 56.2473C842.214 55.0339 840.067 54.4273 837.827 54.4273C835.214 54.4273 832.554 55.0339 829.847 56.2473C827.14 57.4606 824.434 59.1406 821.727 61.2873C824.06 62.7806 825.694 64.5539 826.627 66.6073C827.654 68.6606 828.167 70.7606 828.167 72.9073C828.167 75.8006 827.187 78.8806 825.227 82.1473C823.36 85.3206 820.56 88.1673 816.827 90.6873C813.187 93.2073 808.707 94.9339 803.387 95.8673C805.627 95.8673 807.774 96.3806 809.827 97.4073C811.88 98.434 813.514 99.9273 814.727 101.887C815.474 103.101 815.987 104.314 816.267 105.527C816.547 106.741 816.687 108.001 816.687 109.307C816.687 112.201 815.987 115.094 814.587 117.987C813.187 120.787 811.32 123.354 808.987 125.687C806.747 128.021 804.32 129.981 801.707 131.567C797.694 133.807 793.447 135.347 788.967 136.187C784.58 137.027 780.007 137.447 775.247 137.447C771.514 137.447 767.314 137.167 762.647 136.607C758.074 136.141 753.407 135.721 748.647 135.347C747.527 135.254 746.407 135.207 745.287 135.207C744.167 135.114 742.954 135.067 741.647 135.067C737.634 135.067 733.76 135.487 730.027 136.327C726.387 137.074 723.82 138.567 722.327 140.807ZM832.252 137.167C829.545 137.167 827.632 136.514 826.512 135.207C825.299 133.807 824.692 132.081 824.692 130.027C824.692 127.414 825.439 124.334 826.932 120.787C828.519 117.241 830.619 113.647 833.232 110.007C835.845 106.367 838.785 103.007 842.052 99.9273C845.319 96.7539 848.632 94.2339 851.992 92.3673C855.445 90.4073 858.759 89.4273 861.932 89.4273C864.265 89.4273 865.945 90.0339 866.972 91.2473C867.999 92.4606 868.512 94.0473 868.512 96.0073C868.512 98.6206 867.765 101.747 866.272 105.387C864.779 108.934 862.725 112.574 860.112 116.307C857.592 119.947 854.745 123.354 851.572 126.527C848.492 129.701 845.272 132.267 841.912 134.227C838.552 136.187 835.332 137.167 832.252 137.167ZM833.932 134.507C835.892 134.507 838.225 133.527 840.932 131.567C843.732 129.514 846.579 126.901 849.472 123.727C852.365 120.554 855.025 117.194 857.452 113.647C859.972 110.007 861.979 106.601 863.472 103.427C865.059 100.161 865.852 97.5006 865.852 95.4473C865.852 93.2073 864.779 92.0873 862.632 92.0873C860.859 92.0873 858.619 93.1606 855.912 95.3073C853.299 97.3606 850.545 100.021 847.652 103.287C844.852 106.554 842.192 110.007 839.672 113.647C837.152 117.287 835.099 120.741 833.512 124.007C832.019 127.274 831.272 129.841 831.272 131.707C831.272 133.574 832.159 134.507 833.932 134.507ZM872.966 136.467C870.726 136.467 869.139 135.954 868.206 134.927C867.272 133.901 866.806 132.594 866.806 131.007C866.806 129.421 867.179 127.694 867.926 125.827C868.579 123.867 869.419 121.954 870.446 120.087C872.219 117.101 874.226 114.114 876.466 111.127C878.799 108.047 881.132 105.201 883.466 102.587C885.892 99.974 888.039 97.7339 889.906 95.8673C891.679 94.0939 893.499 92.7873 895.366 91.9473C897.232 91.1073 898.819 90.5473 900.126 90.2673C901.526 89.8939 902.226 89.7073 902.226 89.7073C900.172 92.0406 897.372 95.3539 893.826 99.6473C890.372 103.941 886.872 108.514 883.326 113.367C882.952 113.834 882.252 114.814 881.226 116.307C880.292 117.801 879.266 119.481 878.146 121.347C877.026 123.121 876.046 124.894 875.206 126.667C874.459 128.347 874.086 129.701 874.086 130.727C874.086 131.754 874.646 132.221 875.766 132.127C876.979 132.034 878.566 131.147 880.526 129.467C882.486 127.787 884.586 125.734 886.826 123.307C889.066 120.881 891.166 118.501 893.126 116.167C895.179 113.741 896.859 111.734 898.166 110.147C899.192 108.934 900.452 107.441 901.946 105.667C903.439 103.801 904.979 101.887 906.566 99.9273C908.152 97.9673 909.599 96.2406 910.906 94.7473C912.399 93.0673 913.986 91.9006 915.666 91.2473C917.346 90.5006 918.792 90.0806 920.006 89.9873C921.312 89.8006 921.966 89.7073 921.966 89.7073C921.219 90.6406 919.726 92.4606 917.486 95.1673C915.339 97.874 912.912 101.094 910.206 104.827C907.499 108.467 904.932 112.294 902.506 116.307C900.079 120.227 898.212 123.961 896.906 127.507C896.252 129.094 895.926 130.401 895.926 131.427C895.926 132.361 896.159 133.014 896.626 133.387C897.092 133.667 897.606 133.807 898.166 133.807C899.472 133.807 900.919 133.247 902.506 132.127C904.186 131.007 905.772 129.701 907.266 128.207C908.852 126.621 910.252 125.127 911.466 123.727C912.679 122.327 913.472 121.394 913.846 120.927C914.219 120.927 914.406 121.207 914.406 121.767C914.406 122.607 914.219 123.261 913.846 123.727C912.446 125.407 910.719 127.227 908.666 129.187C906.706 131.147 904.606 132.874 902.366 134.367C900.219 135.767 898.072 136.467 895.926 136.467C893.592 136.467 891.959 135.907 891.026 134.787C890.092 133.667 889.626 132.267 889.626 130.587C889.626 129.001 889.952 127.274 890.606 125.407C891.259 123.447 892.052 121.627 892.986 119.947C891.866 121.067 890.512 122.561 888.926 124.427C887.432 126.201 885.752 128.021 883.886 129.887C882.019 131.754 880.152 133.341 878.286 134.647C876.419 135.861 874.646 136.467 872.966 136.467ZM924.129 137.027C921.796 137.027 920.163 136.467 919.229 135.347C918.296 134.227 917.829 132.781 917.829 131.007C917.829 127.927 918.949 124.427 921.189 120.507C922.496 118.267 924.269 115.701 926.509 112.807C928.843 109.821 931.456 106.694 934.349 103.427C937.243 100.067 940.136 96.8006 943.029 93.6273H933.649L935.189 91.6673H944.849C947.463 88.9606 949.889 86.4406 952.129 84.1073C954.463 81.6806 956.376 79.7206 957.869 78.2273C961.976 74.1206 965.756 70.994 969.209 68.8473C972.756 66.7006 975.556 65.6273 977.609 65.6273C976.116 66.9339 973.923 68.9873 971.029 71.7873C968.229 74.5873 965.103 77.714 961.649 81.1673C958.289 84.6206 954.976 88.1206 951.709 91.6673H961.369L959.829 93.6273H950.029C948.256 95.6806 946.576 97.594 944.989 99.3673C943.496 101.141 942.189 102.821 941.069 104.407C936.683 110.381 933.136 115.281 930.429 119.107C927.723 122.934 925.949 125.827 925.109 127.787C924.456 129.374 924.129 130.681 924.129 131.707C924.129 133.481 924.969 134.367 926.649 134.367C928.049 134.367 929.543 133.901 931.129 132.967C933.463 131.661 935.796 129.794 938.129 127.367C940.556 124.847 942.516 122.701 944.009 120.927C944.383 120.927 944.569 121.207 944.569 121.767C944.569 122.607 944.383 123.261 944.009 123.727C940.463 127.834 937.149 131.101 934.069 133.527C930.989 135.861 927.676 137.027 924.129 137.027ZM985.875 83.8273C984.008 83.8273 983.075 83.0806 983.075 81.5873C983.075 81.1206 983.215 80.6073 983.495 80.0473C983.961 78.9273 984.755 77.9473 985.875 77.1073C987.088 76.1739 988.255 75.7073 989.375 75.7073C991.148 75.7073 992.035 76.4539 992.035 77.9473C992.035 79.3473 991.381 80.6539 990.075 81.8673C988.768 83.0806 987.368 83.734 985.875 83.8273ZM955.495 136.747C952.975 136.747 951.201 136.094 950.175 134.787C949.055 133.387 948.495 131.661 948.495 129.607C948.495 126.901 949.335 124.007 951.015 120.927C952.601 117.754 954.608 114.627 957.035 111.547C959.461 108.374 961.935 105.434 964.455 102.727C966.975 99.9273 969.168 97.6406 971.035 95.8673C972.808 94.0939 974.628 92.7873 976.495 91.9473C978.361 91.1073 979.948 90.5473 981.255 90.2673C982.655 89.8939 983.355 89.7073 983.355 89.7073C981.301 92.0406 978.501 95.3539 974.955 99.6473C971.408 103.941 967.908 108.514 964.455 113.367C964.175 113.741 963.521 114.674 962.495 116.167C961.468 117.661 960.301 119.387 958.995 121.347C957.781 123.307 956.708 125.221 955.775 127.087C954.935 128.954 954.515 130.447 954.515 131.567C954.515 133.341 955.448 134.227 957.315 134.227C958.715 134.227 960.208 133.714 961.795 132.687C963.475 131.661 965.155 130.401 966.835 128.907C968.515 127.414 970.008 125.967 971.315 124.567C972.715 123.074 973.788 121.861 974.535 120.927C974.908 120.927 975.095 121.207 975.095 121.767C975.095 122.607 974.908 123.261 974.535 123.727C970.988 127.834 967.768 131.054 964.875 133.387C962.075 135.627 958.948 136.747 955.495 136.747ZM977.33 175.387C976.024 174.641 975.37 173.241 975.37 171.187C975.37 168.574 976.304 165.261 978.17 161.247C980.037 157.327 982.37 153.081 985.17 148.507C988.064 143.934 990.957 139.454 993.85 135.067C996.837 130.587 999.404 126.574 1001.55 123.027C999.59 125.641 997.677 127.787 995.81 129.467C993.757 131.334 991.797 132.967 989.93 134.367C988.064 135.674 986.104 136.421 984.05 136.607C980.597 136.794 978.87 134.834 978.87 130.727C978.87 128.487 979.524 125.827 980.83 122.747C982.137 119.574 984.097 116.261 986.71 112.807C988.577 110.474 990.864 108.001 993.57 105.387C996.277 102.681 999.217 100.114 1002.39 97.6873C1005.66 95.2606 1008.97 93.3006 1012.33 91.8073C1015.69 90.2206 1018.96 89.4273 1022.13 89.4273C1023.53 89.4273 1024.51 89.6606 1025.07 90.1273C1025.63 90.5006 1026 90.9206 1026.19 91.3873C1026.38 91.7606 1026.38 92.0406 1026.19 92.2273C1026.1 92.414 1025.96 92.4606 1025.77 92.3673C1025.4 92.1806 1024.65 92.0873 1023.53 92.0873C1020.17 92.0873 1016.16 93.7206 1011.49 96.9873C1006.92 100.161 1002.39 104.314 997.91 109.447C994.737 112.994 992.124 116.494 990.07 119.947C988.017 123.307 986.664 126.107 986.01 128.347C985.824 129.094 985.73 129.747 985.73 130.307C985.73 131.614 986.244 132.267 987.27 132.267C987.924 132.267 988.81 131.987 989.93 131.427C991.05 130.774 992.497 129.701 994.27 128.207C997.07 125.781 1000.06 122.841 1003.23 119.387C1006.5 115.934 1009.76 112.387 1013.03 108.747C1016.39 105.014 1019.61 101.654 1022.69 98.6673C1025.77 95.6806 1028.57 93.5339 1031.09 92.2273C1034.17 90.5473 1036.32 89.6139 1037.53 89.4273C1038.74 89.1473 1039.72 89.0073 1040.47 89.0073C1038.98 89.9406 1037.2 91.3873 1035.15 93.3473C1033.19 95.2139 1030.67 97.8739 1027.59 101.327C1024.6 104.781 1020.92 109.307 1016.53 114.907C1012.14 120.507 1006.78 127.554 1000.43 136.047C996.697 140.994 993.244 146.081 990.07 151.307C986.99 156.534 984.33 161.294 982.09 165.587C979.85 169.881 978.264 173.147 977.33 175.387ZM1035.09 136.467C1032.85 136.467 1031.26 135.954 1030.33 134.927C1029.39 133.901 1028.93 132.594 1028.93 131.007C1028.93 129.421 1029.3 127.694 1030.05 125.827C1030.7 123.867 1031.54 121.954 1032.57 120.087C1034.34 117.101 1036.35 114.114 1038.59 111.127C1040.92 108.047 1043.25 105.201 1045.59 102.587C1048.01 99.974 1050.16 97.7339 1052.03 95.8673C1053.8 94.0939 1055.62 92.7873 1057.49 91.9473C1059.35 91.1073 1060.94 90.5473 1062.25 90.2673C1063.65 89.8939 1064.35 89.7073 1064.35 89.7073C1062.29 92.0406 1059.49 95.3539 1055.95 99.6473C1052.49 103.941 1048.99 108.514 1045.45 113.367C1045.07 113.834 1044.37 114.814 1043.35 116.307C1042.41 117.801 1041.39 119.481 1040.27 121.347C1039.15 123.121 1038.17 124.894 1037.33 126.667C1036.58 128.347 1036.21 129.701 1036.21 130.727C1036.21 131.754 1036.77 132.221 1037.89 132.127C1039.1 132.034 1040.69 131.147 1042.65 129.467C1044.61 127.787 1046.71 125.734 1048.95 123.307C1051.19 120.881 1053.29 118.501 1055.25 116.167C1057.3 113.741 1058.98 111.734 1060.29 110.147C1061.31 108.934 1062.57 107.441 1064.07 105.667C1065.56 103.801 1067.1 101.887 1068.69 99.9273C1070.27 97.9673 1071.72 96.2406 1073.03 94.7473C1074.52 93.0673 1076.11 91.9006 1077.79 91.2473C1079.47 90.5006 1080.91 90.0806 1082.13 89.9873C1083.43 89.8006 1084.09 89.7073 1084.09 89.7073C1083.34 90.6406 1081.85 92.4606 1079.61 95.1673C1077.46 97.874 1075.03 101.094 1072.33 104.827C1069.62 108.467 1067.05 112.294 1064.63 116.307C1062.2 120.227 1060.33 123.961 1059.03 127.507C1058.37 129.094 1058.05 130.401 1058.05 131.427C1058.05 132.361 1058.28 133.014 1058.75 133.387C1059.21 133.667 1059.73 133.807 1060.29 133.807C1061.59 133.807 1063.04 133.247 1064.63 132.127C1066.31 131.007 1067.89 129.701 1069.39 128.207C1070.97 126.621 1072.37 125.127 1073.59 123.727C1074.8 122.327 1075.59 121.394 1075.97 120.927C1076.34 120.927 1076.53 121.207 1076.53 121.767C1076.53 122.607 1076.34 123.261 1075.97 123.727C1074.57 125.407 1072.84 127.227 1070.79 129.187C1068.83 131.147 1066.73 132.874 1064.49 134.367C1062.34 135.767 1060.19 136.467 1058.05 136.467C1055.71 136.467 1054.08 135.907 1053.15 134.787C1052.21 133.667 1051.75 132.267 1051.75 130.587C1051.75 129.001 1052.07 127.274 1052.73 125.407C1053.38 123.447 1054.17 121.627 1055.11 119.947C1053.99 121.067 1052.63 122.561 1051.05 124.427C1049.55 126.201 1047.87 128.021 1046.01 129.887C1044.14 131.754 1042.27 133.341 1040.41 134.647C1038.54 135.861 1036.77 136.467 1035.09 136.467ZM1093.67 137.447C1089.38 137.447 1086.34 136.514 1084.57 134.647C1082.8 132.781 1081.91 130.261 1081.91 127.087C1081.91 124.007 1082.75 120.787 1084.43 117.427C1086.2 113.974 1088.4 110.707 1091.01 107.627C1092.6 105.761 1094.56 103.801 1096.89 101.747C1099.22 99.694 1101.74 97.7806 1104.45 96.0073C1107.16 94.1406 1109.82 92.6473 1112.43 91.5273C1115.14 90.3139 1117.52 89.7073 1119.57 89.7073C1120.69 89.7073 1121.72 89.9873 1122.65 90.5473C1123.58 91.014 1124.05 92.0873 1124.05 93.7673C1124.05 96.1006 1122.93 98.3406 1120.69 100.487C1118.45 102.541 1115.93 104.454 1113.13 106.227C1109.96 108.281 1106.64 110.007 1103.19 111.407C1099.74 112.807 1096.75 113.881 1094.23 114.627C1092.83 116.867 1091.71 119.154 1090.87 121.487C1090.03 123.821 1089.61 126.107 1089.61 128.347C1089.61 130.774 1090.17 132.454 1091.29 133.387C1092.5 134.227 1093.9 134.647 1095.49 134.647C1098.38 134.647 1101 133.994 1103.33 132.687C1105.76 131.287 1108 129.514 1110.05 127.367C1112.1 125.221 1114.06 123.074 1115.93 120.927C1116.3 120.927 1116.49 121.207 1116.49 121.767C1116.49 122.607 1116.3 123.261 1115.93 123.727C1114.06 125.874 1112.01 128.021 1109.77 130.167C1107.62 132.314 1105.24 134.087 1102.63 135.487C1100.02 136.794 1097.03 137.447 1093.67 137.447ZM1095.91 112.667C1098.34 111.827 1101.18 110.661 1104.45 109.167C1107.81 107.674 1110.75 106.041 1113.27 104.267C1113.83 103.894 1114.81 103.147 1116.21 102.027C1117.61 100.814 1118.92 99.5073 1120.13 98.1073C1121.34 96.6139 1121.95 95.3073 1121.95 94.1873C1121.95 92.6939 1121.2 91.9473 1119.71 91.9473C1118.12 91.9473 1116.3 92.6473 1114.25 94.0473C1112.29 95.4473 1110.7 96.6606 1109.49 97.6873C1107.25 99.7406 1104.92 102.027 1102.49 104.547C1100.06 107.067 1097.87 109.774 1095.91 112.667Z" fill="black"/>
<line x1="853.67" y1="157.76" x2="1141.3" y2="157.76" stroke="black" stroke-width="5"/>
<path d="M128.342 39.7772V40.6719C130.842 40.8813 131.658 42.5818 131.754 43.4058C131.793 69.3933 131.849 121.825 131.754 123.651C131.659 125.476 129.274 126.095 128.094 126.176V127.337H140.569V126.151H140.313C137.882 126.096 136.954 124.491 136.954 123.651C136.958 97.8094 136.964 45.583 136.954 43.4058C136.944 41.2286 139.344 40.6844 140.545 40.6844V39.7772H128.342Z" fill="#9F9FA0"/>
<path d="M141.397 40.6902V39.8146L172.648 39.8224V40.7651H171.138C169.637 40.7343 168.011 42.2144 167.386 42.9583L137.797 83.1386V73.7596L160.212 43.0375C160.54 41.3683 159.33 40.7771 158.685 40.6902H141.397Z" fill="#9F9FA0"/>
<path d="M126.898 126.509V127.385L95.6469 127.377V126.435H97.1572C98.6578 126.465 100.283 124.985 100.909 124.241L130.498 84.0611V93.4401L108.083 124.162C107.755 125.831 108.964 126.423 109.61 126.509H126.898Z" fill="#9F9FA0"/>
<path d="M172.648 116.825L166.811 127.296L141.514 127.385V126.462C143.413 126.477 149.066 126.499 156.479 126.462C163.892 126.424 169.946 119.805 172.046 116.5L172.648 116.825Z" fill="#9F9FA0"/>
<path d="M95.7246 50.3861L101.562 39.9152L126.86 39.8256V40.7491C124.96 40.7337 119.307 40.7121 111.894 40.7491C104.481 40.7862 98.4273 47.4055 96.3269 50.7105L95.7246 50.3861Z" fill="#9F9FA0"/>
<path d="M120.871 39.8256V40.7203C123.371 40.9297 124.187 42.6302 124.283 43.4542C124.323 69.4417 124.378 121.873 124.283 123.699C124.188 125.525 121.803 126.143 120.623 126.225V127.385H133.098V126.199H132.842C130.412 126.144 129.483 124.539 129.483 123.699C129.487 97.8578 129.493 45.6314 129.483 43.4542C129.473 41.277 131.873 40.7328 133.074 40.7328V39.8256H120.871Z" fill="black"/>
<path d="M134.098 40.6902V39.8146L165.349 39.8224V40.7651H163.839C162.338 40.7343 160.713 42.2144 160.087 42.9583L130.498 83.1386V73.7596L152.913 43.0375C153.241 41.3683 152.032 40.7771 151.386 40.6902H134.098Z" fill="black"/>
<path d="M119.779 126.509V127.385L88.5278 127.377V126.435H90.038C91.5386 126.465 93.1643 124.985 93.7896 124.241L123.379 84.0611V93.4401L100.964 124.162C100.636 125.831 101.845 126.423 102.491 126.509H119.779Z" fill="black"/>
<path d="M88.5273 50.3377L94.3652 39.8668L119.662 39.7772V40.7007C117.763 40.6853 112.11 40.6637 104.697 40.7007C97.284 40.7378 91.23 47.3571 89.1297 50.6621L88.5273 50.3377Z" fill="black"/>
<path d="M165.348 116.825L159.51 127.296L134.213 127.385V126.462C136.112 126.477 141.765 126.499 149.178 126.462C156.591 126.424 162.645 119.805 164.745 116.5L165.348 116.825Z" fill="black"/>
<path d="M177.428 149.125H174.668L173.964 150.773H173.596L175.964 145.173H176.364L178.972 150.773H178.196L177.428 149.125ZM177.26 148.765L176.004 146.069H175.972L174.82 148.765H177.26Z" fill="black"/>
<path d="M171.151 145.173H171.519V150.869H171.479L167.039 146.493H167.007V150.773H166.639V145.077H166.679L171.119 149.453H171.151V145.173Z" fill="black"/>
<path d="M162.791 145.173H163.519V150.773H162.791V145.173Z" fill="black"/>
<path d="M156.777 150.773V145.173H157.505V150.333H160.393V150.773H156.777Z" fill="black"/>
<path d="M149.475 149.125H146.715L146.011 150.773H145.643L148.011 145.173H148.411L151.019 150.773H150.243L149.475 149.125ZM149.307 148.765L148.051 146.069H148.019L146.867 148.765H149.307Z" fill="black"/>
<path d="M143.198 145.173H143.566V150.869H143.526L139.086 146.493H139.054V150.773H138.686V145.077H138.726L143.166 149.453H143.198V145.173Z" fill="black"/>
<path d="M135.057 149.125H132.297L131.593 150.773H131.225L133.593 145.173H133.993L136.601 150.773H135.825L135.057 149.125ZM134.889 148.765L133.633 146.069H133.601L132.449 148.765H134.889Z" fill="black"/>
<path d="M128.096 145.173H128.824V150.773H128.096V145.173Z" fill="black"/>
<path d="M121.048 145.173H125.56L122.008 150.333H125.696V150.773H120.848L124.432 145.613H121.048V145.173Z" fill="black"/>
<path d="M114.264 149.125H111.504L110.8 150.773H110.432L112.8 145.173H113.2L115.808 150.773H115.032L114.264 149.125ZM114.096 148.765L112.84 146.069H112.808L111.656 148.765H114.096Z" fill="black"/>
<path d="M105.459 145.173H109.075V145.613H106.187V147.621H108.667V147.989H106.187V150.773H105.459V145.173Z" fill="black"/>
<path d="M101.832 149.125H99.072L98.368 150.773H98L100.368 145.173H100.768L103.376 150.773H102.6L101.832 149.125ZM101.664 148.765L100.408 146.069H100.376L99.224 148.765H101.664Z" fill="black"/>
<path d="M96.3963 148.277V150.773H95.7083V150.445C95.5056 150.552 95.2496 150.65 94.9403 150.741C94.631 150.826 94.2763 150.869 93.8763 150.869C93.343 150.869 92.8843 150.786 92.5003 150.621C92.1163 150.45 91.799 150.226 91.5483 149.949C91.303 149.666 91.119 149.349 90.9963 148.997C90.879 148.64 90.8203 148.272 90.8203 147.893C90.8203 147.45 90.8976 147.056 91.0523 146.709C91.207 146.357 91.423 146.061 91.7003 145.821C91.9776 145.581 92.3056 145.397 92.6843 145.269C93.0683 145.141 93.487 145.077 93.9403 145.077C94.335 145.077 94.6763 145.122 94.9643 145.213C95.2576 145.298 95.503 145.405 95.7003 145.533C95.8976 145.661 96.0523 145.8 96.1643 145.949C96.2816 146.093 96.3643 146.224 96.4123 146.341H95.8363C95.8043 146.229 95.7323 146.12 95.6203 146.013C95.5136 145.901 95.375 145.802 95.2043 145.717C95.0336 145.632 94.839 145.562 94.6203 145.509C94.4016 145.456 94.167 145.429 93.9163 145.429C93.5376 145.429 93.2043 145.49 92.9163 145.613C92.6336 145.736 92.3936 145.909 92.1963 146.133C91.999 146.357 91.8496 146.624 91.7483 146.933C91.6523 147.242 91.6043 147.581 91.6043 147.949C91.6043 148.322 91.655 148.666 91.7563 148.981C91.863 149.29 92.0203 149.56 92.2283 149.789C92.4363 150.013 92.6976 150.189 93.0123 150.317C93.327 150.445 93.695 150.509 94.1163 150.509C94.4363 150.509 94.7216 150.472 94.9723 150.397C95.223 150.322 95.4683 150.208 95.7083 150.053V148.605H94.8123V148.277H96.3963Z" fill="black"/>
<path d="M85.6094 145.173H89.2254V145.613H86.3374V147.621H88.8174V147.989H86.3374V150.333H89.2254V150.773H85.6094V145.173Z" fill="black"/>
<path d="M82.4436 145.173H82.8116V150.869H82.7716L78.3316 146.493H78.2996V150.773H77.9316V145.077H77.9716L82.4116 149.453H82.4436V145.173Z" fill="black"/>
<defs>
<linearGradient id="paint0_linear_288_282" x1="0.175781" y1="92.6224" x2="1280.18" y2="92.6224" gradientUnits="userSpaceOnUse">
<stop stop-color="#FFC0CB"/>
<stop offset="1" stop-color="#FEE1EB" stop-opacity="0.5"/>
</linearGradient>
</defs>
</svg>
