<svg width="1281" height="186" viewBox="0 0 1281 186" fill="none" xmlns="http://www.w3.org/2000/svg">
<rect x="0.699219" y="0.122375" width="1280" height="185" fill="url(#paint0_linear_294_256)"/>
<path d="M760.445 147.107C758.765 147.107 757.085 146.827 755.405 146.267C753.631 145.801 752.185 144.867 751.065 143.467C749.851 142.161 749.245 140.341 749.245 138.007C749.245 136.701 749.758 135.254 750.785 133.667C751.718 131.987 752.885 131.147 754.285 131.147C753.538 132.267 753.165 133.621 753.165 135.207C753.165 136.887 753.865 138.287 755.265 139.407C756.665 140.621 758.905 141.227 761.985 141.227C765.531 141.227 769.265 140.201 773.185 138.147C777.105 136.187 781.071 133.574 785.085 130.307C789.098 126.947 793.018 123.261 796.845 119.247C800.671 115.234 804.218 111.174 807.485 107.067C811.218 102.401 814.998 97.8273 818.825 93.3473C822.651 88.8673 826.338 84.854 829.885 81.3073C833.525 77.6673 836.745 74.8673 839.545 72.9073C840.478 72.2539 842.018 71.1806 844.165 69.6873C846.405 68.1939 849.251 66.8406 852.705 65.6273C849.251 65.7206 845.611 65.674 841.785 65.4873C838.051 65.2073 834.411 64.8339 830.865 64.3673C828.905 64.0873 826.898 63.8539 824.845 63.6673C822.791 63.4806 820.691 63.3873 818.545 63.3873C812.851 63.3873 807.485 64.1339 802.445 65.6273C797.405 67.1206 793.531 69.734 790.825 73.4673C789.238 75.7073 788.445 77.9006 788.445 80.0473C788.445 81.5406 788.771 82.7539 789.425 83.6873C789.798 84.0606 790.218 84.4806 790.685 84.9473C791.151 85.3206 791.525 85.5073 791.805 85.5073C791.431 85.8806 790.965 86.0673 790.405 86.0673C789.751 86.0673 789.098 85.9273 788.445 85.6473C787.885 85.274 787.418 84.9006 787.045 84.5273C786.111 83.5006 785.411 82.3339 784.945 81.0273C784.478 79.6273 784.245 78.274 784.245 76.9673C784.245 74.354 784.898 72.1606 786.205 70.3873C788.818 66.8406 792.178 64.2273 796.285 62.5473C800.391 60.8673 805.571 60.0273 811.825 60.0273C814.531 60.0273 817.471 60.2139 820.645 60.5873C823.818 60.8673 827.271 61.2873 831.005 61.8473C838.845 63.1539 846.311 63.8073 853.405 63.8073C856.951 63.8073 859.985 63.6206 862.505 63.2473C865.025 62.7806 866.611 62.0806 867.265 61.1473C868.291 61.1473 868.618 61.5673 868.245 62.4073C867.965 63.6206 867.358 64.3673 866.425 64.6473C865.491 64.9273 864.465 65.3006 863.345 65.7673C861.198 66.514 858.771 68.2873 856.065 71.0873C853.358 73.8873 850.558 77.3406 847.665 81.4473C844.865 85.554 842.065 89.9406 839.265 94.6073C836.465 99.1806 833.851 103.707 831.425 108.187C828.998 112.574 826.898 116.494 825.125 119.947C824.191 121.721 823.025 123.774 821.625 126.107C820.225 128.441 818.685 130.587 817.005 132.547C819.618 130.587 822.698 127.834 826.245 124.287C829.791 120.741 833.478 116.727 837.305 112.247C841.225 107.767 845.005 103.241 848.645 98.6673C852.098 94.1873 855.971 89.4273 860.265 84.3873C864.558 79.3473 868.945 74.5406 873.425 69.9673C877.998 65.3939 882.478 61.6139 886.865 58.6273C891.345 55.5473 895.451 53.7739 899.185 53.3073C899.651 53.2139 900.025 53.1673 900.305 53.1673C900.678 53.1673 901.051 53.1673 901.425 53.1673C904.131 53.1673 906.278 53.8206 907.865 55.1273C909.545 56.3406 910.431 58.394 910.525 61.2873C910.525 62.3139 910.245 63.4339 909.685 64.6473C909.125 65.8606 908.238 66.654 907.025 67.0273C907.398 66.5606 907.631 65.8606 907.725 64.9273C907.911 63.9939 908.051 63.2006 908.145 62.5473C908.051 60.9606 907.305 59.7006 905.905 58.7673C904.598 57.7406 902.591 57.2273 899.885 57.2273C896.151 57.2273 892.091 58.6273 887.705 61.4273C883.411 64.2273 879.025 67.8206 874.545 72.2073C870.158 76.5939 865.865 81.2606 861.665 86.2073C857.558 91.1539 853.825 95.7739 850.465 100.067C846.918 104.641 843.045 109.447 838.845 114.487C834.645 119.434 830.585 123.914 826.665 127.927C822.745 131.941 819.338 134.927 816.445 136.887C815.885 137.261 815.045 137.634 813.925 138.007C812.805 138.381 811.685 138.567 810.565 138.567C809.631 138.567 808.745 138.287 807.905 137.727C807.065 137.261 806.551 136.421 806.365 135.207C806.551 135.301 806.878 135.394 807.345 135.487C807.811 135.581 808.325 135.627 808.885 135.627C809.911 135.627 811.078 135.254 812.385 134.507C813.691 133.761 814.811 132.081 815.745 129.467C817.798 124.147 820.085 118.594 822.605 112.807C825.218 106.927 828.205 101.141 831.565 95.4473C834.925 89.6606 838.798 84.2473 843.185 79.2073C847.665 74.0739 852.751 69.5473 858.445 65.6273C857.605 65.6273 856.718 65.7673 855.785 66.0473C854.851 66.2339 854.385 66.3273 854.385 66.3273C851.771 67.2606 849.065 68.6139 846.265 70.3873C843.558 72.0673 841.225 73.7473 839.265 75.4273C836.745 77.5739 833.805 80.4673 830.445 84.1073C827.085 87.6539 823.585 91.5739 819.945 95.8673C816.305 100.067 812.758 104.361 809.305 108.747C805.851 113.134 802.211 117.567 798.385 122.047C794.651 126.527 790.731 130.681 786.625 134.507C782.518 138.241 778.271 141.274 773.885 143.607C769.591 145.941 765.111 147.107 760.445 147.107ZM868.791 137.447C864.497 137.447 861.464 136.514 859.691 134.647C857.917 132.781 857.031 130.261 857.031 127.087C857.031 124.007 857.871 120.787 859.551 117.427C861.324 113.974 863.517 110.707 866.131 107.627C867.717 105.761 869.677 103.801 872.011 101.747C874.344 99.694 876.864 97.7806 879.571 96.0073C882.277 94.1406 884.937 92.6473 887.551 91.5273C890.257 90.3139 892.637 89.7073 894.691 89.7073C895.811 89.7073 896.837 89.9873 897.771 90.5473C898.704 91.014 899.171 92.0873 899.171 93.7673C899.171 96.1006 898.051 98.3406 895.811 100.487C893.571 102.541 891.051 104.454 888.251 106.227C885.077 108.281 881.764 110.007 878.311 111.407C874.857 112.807 871.871 113.881 869.351 114.627C867.951 116.867 866.831 119.154 865.991 121.487C865.151 123.821 864.731 126.107 864.731 128.347C864.731 130.774 865.291 132.454 866.411 133.387C867.624 134.227 869.024 134.647 870.611 134.647C873.504 134.647 876.117 133.994 878.451 132.687C880.877 131.287 883.117 129.514 885.171 127.367C887.224 125.221 889.184 123.074 891.051 120.927C891.424 120.927 891.611 121.207 891.611 121.767C891.611 122.607 891.424 123.261 891.051 123.727C889.184 125.874 887.131 128.021 884.891 130.167C882.744 132.314 880.364 134.087 877.751 135.487C875.137 136.794 872.151 137.447 868.791 137.447ZM871.031 112.667C873.457 111.827 876.304 110.661 879.571 109.167C882.931 107.674 885.871 106.041 888.391 104.267C888.951 103.894 889.931 103.147 891.331 102.027C892.731 100.814 894.037 99.5073 895.251 98.1073C896.464 96.6139 897.071 95.3073 897.071 94.1873C897.071 92.6939 896.324 91.9473 894.831 91.9473C893.244 91.9473 891.424 92.6473 889.371 94.0473C887.411 95.4473 885.824 96.6606 884.611 97.6873C882.371 99.7406 880.037 102.027 877.611 104.547C875.184 107.067 872.991 109.774 871.031 112.667ZM882.7 170.907C879.9 170.907 877.986 170.674 876.96 170.207C875.933 169.834 875.42 169.507 875.42 169.227C875.42 168.854 875.746 168.667 876.4 168.667C876.866 168.667 877.333 168.667 877.8 168.667C878.266 168.761 878.686 168.807 879.06 168.807C882.42 168.807 885.78 167.781 889.14 165.727C892.5 163.674 895.766 160.921 898.94 157.467C902.113 154.107 905.146 150.374 908.04 146.267C910.933 142.161 913.546 138.101 915.88 134.087C916.72 132.594 917.793 130.681 919.1 128.347C920.406 125.921 921.853 123.307 923.44 120.507C921.666 122.561 920.033 124.381 918.54 125.967C917.046 127.554 915.926 128.721 915.18 129.467C913.126 131.334 911.166 132.967 909.3 134.367C907.433 135.674 905.473 136.421 903.42 136.607C899.966 136.794 898.24 134.834 898.24 130.727C898.24 128.487 898.893 125.827 900.2 122.747C901.506 119.574 903.466 116.261 906.08 112.807C907.946 110.474 910.233 108.001 912.94 105.387C915.646 102.681 918.586 100.114 921.76 97.6873C925.026 95.2606 928.34 93.3006 931.7 91.8073C935.06 90.2206 938.326 89.4273 941.5 89.4273C942.9 89.4273 943.88 89.6606 944.44 90.1273C945 90.5006 945.373 90.9206 945.56 91.3873C945.653 91.7606 945.653 92.0873 945.56 92.3673C948.266 90.5939 950.786 89.7073 953.12 89.7073C953.773 89.7073 954.193 89.8006 954.38 89.9873C950.46 92.4139 946.96 95.5406 943.88 99.3673C940.893 103.101 938.093 107.301 935.48 111.967C932.866 116.634 930.253 121.441 927.64 126.387C925.12 131.334 922.413 136.234 919.52 141.087C916.72 145.941 913.546 150.421 910 154.527C905.8 159.381 901.273 163.301 896.42 166.287C891.566 169.367 886.993 170.907 882.7 170.907ZM906.64 132.267C907.293 132.267 908.18 131.987 909.3 131.427C910.42 130.774 911.866 129.701 913.64 128.207C916.626 125.594 919.66 122.421 922.74 118.687C925.82 114.861 928.806 111.081 931.7 107.347C933.846 104.361 936.04 101.514 938.28 98.8073C940.613 96.1006 942.993 94.0006 945.42 92.5073C945.233 92.5073 945.14 92.4606 945.14 92.3673C944.766 92.1806 944.02 92.0873 942.9 92.0873C939.54 92.0873 935.526 93.7206 930.86 96.9873C926.286 100.161 921.76 104.314 917.28 109.447C914.106 112.994 911.493 116.494 909.44 119.947C907.386 123.307 906.033 126.107 905.38 128.347C905.193 129.094 905.1 129.747 905.1 130.307C905.1 131.614 905.613 132.267 906.64 132.267ZM951.911 136.607C948.458 136.607 946.731 134.647 946.731 130.727C946.731 128.487 947.385 125.827 948.691 122.747C949.998 119.574 951.958 116.261 954.571 112.807C956.438 110.474 958.725 108.001 961.431 105.387C964.138 102.681 967.078 100.114 970.251 97.6873C973.518 95.2606 976.831 93.3006 980.191 91.8073C983.551 90.2206 986.818 89.4273 989.991 89.4273C991.391 89.4273 992.371 89.6606 992.931 90.1273C993.491 90.5006 993.865 90.9206 994.051 91.3873C994.238 91.7606 994.238 92.0406 994.051 92.2273C993.958 92.414 993.818 92.4606 993.631 92.3673C993.258 92.1806 992.511 92.0873 991.391 92.0873C988.031 92.0873 984.018 93.7206 979.351 96.9873C974.778 100.161 970.251 104.314 965.771 109.447C962.598 112.994 959.985 116.494 957.931 119.947C955.878 123.307 954.525 126.107 953.871 128.347C953.685 129.094 953.591 129.747 953.591 130.307C953.591 131.614 954.105 132.267 955.131 132.267C955.785 132.267 956.671 131.987 957.791 131.427C958.911 130.774 960.358 129.701 962.131 128.207C964.931 125.781 967.685 122.934 970.391 119.667C973.191 116.401 975.945 113.087 978.651 109.727C981.358 106.274 983.971 103.101 986.491 100.207C989.105 97.3139 991.578 95.1206 993.911 93.6273C996.898 91.6673 998.951 90.5473 1000.07 90.2673C1001.28 89.9873 1002.26 89.8006 1003.01 89.7073C1002.54 90.2673 1001.52 91.5739 999.931 93.6273C998.345 95.6806 996.665 97.874 994.891 100.207C993.118 102.447 991.671 104.314 990.551 105.807C988.871 108.234 987.051 110.847 985.091 113.647C983.225 116.447 981.498 119.107 979.911 121.627C978.418 124.054 977.391 126.061 976.831 127.647C976.365 129.234 976.131 130.401 976.131 131.147C976.131 132.641 976.738 133.387 977.951 133.387C978.791 133.387 979.771 133.061 980.891 132.407C982.105 131.661 983.318 130.821 984.531 129.887C986.118 128.581 987.611 127.227 989.011 125.827C990.411 124.334 991.858 122.701 993.351 120.927C993.725 120.927 993.911 121.207 993.911 121.767C993.911 122.607 993.725 123.261 993.351 123.727C992.138 125.127 990.645 126.667 988.871 128.347C987.191 130.027 985.511 131.521 983.831 132.827C982.618 133.854 981.218 134.741 979.631 135.487C978.045 136.234 976.505 136.607 975.011 136.607C972.865 136.607 971.371 136.094 970.531 135.067C969.691 134.041 969.271 132.734 969.271 131.147C969.271 129.281 969.691 127.274 970.531 125.127C971.371 122.887 972.305 120.787 973.331 118.827C972.118 120.321 970.578 122.141 968.711 124.287C966.845 126.341 965.165 128.067 963.671 129.467C961.618 131.334 959.658 133.014 957.791 134.507C955.925 135.907 953.965 136.607 951.911 136.607ZM958.288 170.347C956.234 170.347 954.368 170.067 952.688 169.507C951.941 169.134 951.194 168.621 950.448 167.967C949.608 167.314 949.048 166.474 948.768 165.447C949.794 166.287 950.961 166.894 952.268 167.267C953.574 167.734 955.161 167.921 957.028 167.827C961.974 167.827 966.641 166.567 971.028 164.047C975.321 161.621 979.381 158.354 983.208 154.247C987.034 150.141 990.628 145.614 993.988 140.667C997.348 135.721 1000.52 130.774 1003.51 125.827C1006.49 120.787 1009.29 116.214 1011.91 112.107C1013.68 109.307 1015.5 106.321 1017.37 103.147C1019.33 99.974 1021.43 96.8006 1023.67 93.6273H1015.83L1017.37 91.6673H1025.07C1029.45 85.5073 1034.26 79.8139 1039.49 74.5873C1044.81 69.3606 1050.73 65.7673 1057.27 63.8073C1058.85 63.2473 1061 62.9673 1063.71 62.9673C1064.83 62.9673 1065.95 63.0606 1067.07 63.2473C1068.19 63.3406 1069.21 63.574 1070.15 63.9473C1070.99 64.3206 1071.78 64.834 1072.53 65.4873C1073.27 66.1406 1073.83 66.9806 1074.21 68.0073C1072.25 66.4206 1069.45 65.6273 1065.81 65.6273C1060.95 65.6273 1056.47 66.9806 1052.37 69.6873C1048.35 72.3939 1044.71 75.7539 1041.45 79.7673C1038.27 83.6873 1035.38 87.654 1032.77 91.6673H1043.55L1042.01 93.6273H1031.51C1029.45 96.7073 1027.4 99.9273 1025.35 103.287C1023.39 106.647 1020.96 110.614 1018.07 115.187C1016.11 118.267 1013.68 121.907 1010.79 126.107C1007.99 130.214 1004.86 134.507 1001.41 138.987C997.954 143.467 994.268 147.761 990.348 151.867C986.428 155.974 982.321 159.567 978.028 162.647C973.734 165.821 969.348 168.061 964.868 169.367C963.094 170.021 960.901 170.347 958.288 170.347ZM1041.78 136.607C1038.33 136.607 1036.6 134.647 1036.6 130.727C1036.6 128.487 1037.26 125.827 1038.56 122.747C1039.87 119.574 1041.83 116.261 1044.44 112.807C1046.31 110.474 1048.6 108.001 1051.3 105.387C1054.01 102.681 1056.95 100.114 1060.12 97.6873C1063.39 95.2606 1066.7 93.3006 1070.06 91.8073C1073.42 90.2206 1076.69 89.4273 1079.86 89.4273C1081.26 89.4273 1082.24 89.6606 1082.8 90.1273C1083.36 90.5006 1083.74 90.9206 1083.92 91.3873C1084.11 91.7606 1084.11 92.0406 1083.92 92.2273C1083.83 92.414 1083.69 92.4606 1083.5 92.3673C1083.13 92.1806 1082.38 92.0873 1081.26 92.0873C1077.9 92.0873 1073.89 93.7206 1069.22 96.9873C1064.65 100.161 1060.12 104.314 1055.64 109.447C1052.47 112.994 1049.86 116.494 1047.8 119.947C1045.75 123.307 1044.4 126.107 1043.74 128.347C1043.56 129.094 1043.46 129.747 1043.46 130.307C1043.46 131.614 1043.98 132.267 1045 132.267C1045.66 132.267 1046.54 131.987 1047.66 131.427C1048.78 130.774 1050.23 129.701 1052 128.207C1054.8 125.781 1057.56 122.934 1060.26 119.667C1063.06 116.401 1065.82 113.087 1068.52 109.727C1071.23 106.274 1073.84 103.101 1076.36 100.207C1078.98 97.3139 1081.45 95.1206 1083.78 93.6273C1086.77 91.6673 1088.82 90.5473 1089.94 90.2673C1091.16 89.9873 1092.14 89.8006 1092.88 89.7073C1092.42 90.2673 1091.39 91.5739 1089.8 93.6273C1088.22 95.6806 1086.54 97.874 1084.76 100.207C1082.99 102.447 1081.54 104.314 1080.42 105.807C1078.74 108.234 1076.92 110.847 1074.96 113.647C1073.1 116.447 1071.37 119.107 1069.78 121.627C1068.29 124.054 1067.26 126.061 1066.7 127.647C1066.24 129.234 1066 130.401 1066 131.147C1066 132.641 1066.61 133.387 1067.82 133.387C1068.66 133.387 1069.64 133.061 1070.76 132.407C1071.98 131.661 1073.19 130.821 1074.4 129.887C1075.99 128.581 1077.48 127.227 1078.88 125.827C1080.28 124.334 1081.73 122.701 1083.22 120.927C1083.6 120.927 1083.78 121.207 1083.78 121.767C1083.78 122.607 1083.6 123.261 1083.22 123.727C1082.01 125.127 1080.52 126.667 1078.74 128.347C1077.06 130.027 1075.38 131.521 1073.7 132.827C1072.49 133.854 1071.09 134.741 1069.5 135.487C1067.92 136.234 1066.38 136.607 1064.88 136.607C1062.74 136.607 1061.24 136.094 1060.4 135.067C1059.56 134.041 1059.14 132.734 1059.14 131.147C1059.14 129.281 1059.56 127.274 1060.4 125.127C1061.24 122.887 1062.18 120.787 1063.2 118.827C1061.99 120.321 1060.45 122.141 1058.58 124.287C1056.72 126.341 1055.04 128.067 1053.54 129.467C1051.49 131.334 1049.53 133.014 1047.66 134.507C1045.8 135.907 1043.84 136.607 1041.78 136.607Z" fill="black"/>
<line x1="854.193" y1="157.76" x2="1141.82" y2="157.76" stroke="black" stroke-width="5"/>
<path d="M128.866 39.7772V40.6719C131.365 40.8813 132.181 42.5818 132.277 43.4058C132.317 69.3933 132.372 121.825 132.277 123.651C132.182 125.476 129.798 126.095 128.617 126.176V127.337H141.092V126.151H140.836C138.406 126.096 137.477 124.491 137.477 123.651C137.481 97.8094 137.487 45.583 137.477 43.4058C137.467 41.2286 139.867 40.6844 141.069 40.6844V39.7772H128.866Z" fill="#9F9FA0"/>
<path d="M141.92 40.6902V39.8146L173.171 39.8224V40.7651H171.661C170.161 40.7343 168.535 42.2144 167.91 42.9583L138.32 83.1386V73.7596L160.736 43.0375C161.064 41.3683 159.854 40.7771 159.208 40.6902H141.92Z" fill="#9F9FA0"/>
<path d="M127.422 126.509V127.385L96.1703 127.377V126.435H97.6806C99.1812 126.465 100.807 124.985 101.432 124.241L131.021 84.0611V93.4401L108.606 124.162C108.278 125.831 109.488 126.423 110.134 126.509H127.422Z" fill="#9F9FA0"/>
<path d="M173.172 116.825L167.334 127.296L142.037 127.385V126.462C143.937 126.477 149.589 126.499 157.002 126.462C164.415 126.424 170.469 119.805 172.57 116.5L173.172 116.825Z" fill="#9F9FA0"/>
<path d="M96.248 50.3861L102.086 39.9152L127.383 39.8256V40.7491C125.483 40.7337 119.831 40.7121 112.418 40.7491C105.005 40.7862 98.9507 47.4055 96.8504 50.7105L96.248 50.3861Z" fill="#9F9FA0"/>
<path d="M121.395 39.8256V40.7203C123.894 40.9297 124.711 42.6302 124.806 43.4542C124.846 69.4417 124.902 121.873 124.806 123.699C124.711 125.525 122.327 126.143 121.146 126.225V127.385H133.621V126.199H133.365C130.935 126.144 130.006 124.539 130.007 123.699C130.011 97.8578 130.017 45.6314 130.007 43.4542C129.997 41.277 132.397 40.7328 133.598 40.7328V39.8256H121.395Z" fill="black"/>
<path d="M134.621 40.6902V39.8146L165.873 39.8224V40.7651H164.362C162.862 40.7343 161.236 42.2144 160.611 42.9583L131.021 83.1386V73.7596L153.437 43.0375C153.765 41.3683 152.555 40.7771 151.909 40.6902H134.621Z" fill="black"/>
<path d="M120.302 126.509V127.385L89.0512 127.377V126.435H90.5615C92.0621 126.465 93.6878 124.985 94.313 124.241L123.902 84.0611V93.4401L101.487 124.162C101.159 125.831 102.369 126.423 103.015 126.509H120.302Z" fill="black"/>
<path d="M89.0508 50.3377L94.8886 39.8668L120.186 39.7772V40.7007C118.286 40.6853 112.634 40.6637 105.221 40.7007C97.8075 40.7378 91.7535 47.3571 89.6531 50.6621L89.0508 50.3377Z" fill="black"/>
<path d="M165.871 116.825L160.033 127.296L134.736 127.385V126.462C136.636 126.477 142.288 126.499 149.701 126.462C157.114 126.424 163.168 119.805 165.269 116.5L165.871 116.825Z" fill="black"/>
<path d="M177.951 149.125H175.191L174.487 150.773H174.119L176.487 145.173H176.887L179.495 150.773H178.719L177.951 149.125ZM177.783 148.765L176.527 146.069H176.495L175.343 148.765H177.783Z" fill="black"/>
<path d="M171.674 145.173H172.042V150.869H172.002L167.562 146.493H167.53V150.773H167.162V145.077H167.202L171.642 149.453H171.674V145.173Z" fill="black"/>
<path d="M163.314 145.173H164.042V150.773H163.314V145.173Z" fill="black"/>
<path d="M157.301 150.773V145.173H158.029V150.333H160.917V150.773H157.301Z" fill="black"/>
<path d="M149.998 149.125H147.238L146.534 150.773H146.166L148.534 145.173H148.934L151.542 150.773H150.766L149.998 149.125ZM149.83 148.765L148.574 146.069H148.542L147.39 148.765H149.83Z" fill="black"/>
<path d="M143.721 145.173H144.089V150.869H144.049L139.609 146.493H139.577V150.773H139.209V145.077H139.249L143.689 149.453H143.721V145.173Z" fill="black"/>
<path d="M135.58 149.125H132.82L132.116 150.773H131.748L134.116 145.173H134.516L137.124 150.773H136.348L135.58 149.125ZM135.412 148.765L134.156 146.069H134.124L132.972 148.765H135.412Z" fill="black"/>
<path d="M128.619 145.173H129.347V150.773H128.619V145.173Z" fill="black"/>
<path d="M121.571 145.173H126.083L122.531 150.333H126.219V150.773H121.371L124.955 145.613H121.571V145.173Z" fill="black"/>
<path d="M114.787 149.125H112.027L111.323 150.773H110.955L113.323 145.173H113.723L116.331 150.773H115.555L114.787 149.125ZM114.619 148.765L113.363 146.069H113.331L112.179 148.765H114.619Z" fill="black"/>
<path d="M105.982 145.173H109.598V145.613H106.71V147.621H109.19V147.989H106.71V150.773H105.982V145.173Z" fill="black"/>
<path d="M102.355 149.125H99.5954L98.8914 150.773H98.5234L100.891 145.173H101.291L103.899 150.773H103.123L102.355 149.125ZM102.187 148.765L100.931 146.069H100.899L99.7474 148.765H102.187Z" fill="black"/>
<path d="M96.9198 148.277V150.773H96.2318V150.445C96.0291 150.552 95.7731 150.65 95.4638 150.741C95.1544 150.826 94.7998 150.869 94.3998 150.869C93.8664 150.869 93.4078 150.786 93.0238 150.621C92.6398 150.45 92.3224 150.226 92.0718 149.949C91.8264 149.666 91.6424 149.349 91.5198 148.997C91.4024 148.64 91.3438 148.272 91.3438 147.893C91.3438 147.45 91.4211 147.056 91.5758 146.709C91.7304 146.357 91.9464 146.061 92.2238 145.821C92.5011 145.581 92.8291 145.397 93.2078 145.269C93.5918 145.141 94.0104 145.077 94.4638 145.077C94.8584 145.077 95.1998 145.122 95.4878 145.213C95.7811 145.298 96.0264 145.405 96.2238 145.533C96.4211 145.661 96.5757 145.8 96.6877 145.949C96.8051 146.093 96.8878 146.224 96.9358 146.341H96.3598C96.3278 146.229 96.2558 146.12 96.1438 146.013C96.0371 145.901 95.8984 145.802 95.7278 145.717C95.5571 145.632 95.3624 145.562 95.1438 145.509C94.9251 145.456 94.6904 145.429 94.4398 145.429C94.0611 145.429 93.7278 145.49 93.4398 145.613C93.1571 145.736 92.9171 145.909 92.7198 146.133C92.5224 146.357 92.3731 146.624 92.2718 146.933C92.1758 147.242 92.1278 147.581 92.1278 147.949C92.1278 148.322 92.1784 148.666 92.2798 148.981C92.3864 149.29 92.5438 149.56 92.7518 149.789C92.9598 150.013 93.2211 150.189 93.5358 150.317C93.8504 150.445 94.2184 150.509 94.6398 150.509C94.9598 150.509 95.2451 150.472 95.4958 150.397C95.7464 150.322 95.9918 150.208 96.2318 150.053V148.605H95.3358V148.277H96.9198Z" fill="black"/>
<path d="M86.1328 145.173H89.7488V145.613H86.8608V147.621H89.3408V147.989H86.8608V150.333H89.7488V150.773H86.1328V145.173Z" fill="black"/>
<path d="M82.9671 145.173H83.3351V150.869H83.2951L78.8551 146.493H78.8231V150.773H78.4551V145.077H78.4951L82.9351 149.453H82.9671V145.173Z" fill="black"/>
<defs>
<linearGradient id="paint0_linear_294_256" x1="0.699219" y1="92.6224" x2="1280.7" y2="92.6224" gradientUnits="userSpaceOnUse">
<stop stop-color="#FFC0CB"/>
<stop offset="1" stop-color="#FEE1EB" stop-opacity="0.5"/>
</linearGradient>
</defs>
</svg>
