<svg width="179" height="88" viewBox="0 0 179 88" fill="none" xmlns="http://www.w3.org/2000/svg">
<path d="M39.9261 0.118896V1.01361C42.4257 1.223 43.242 2.92343 43.3377 3.74747C43.3774 29.7349 43.4328 82.1663 43.3377 83.9922C43.2427 85.8181 40.8581 86.4368 39.6777 86.5179V87.6783H52.1525V86.4923H51.8965C49.4664 86.4377 48.5377 84.8327 48.5378 83.9922C48.542 58.1511 48.5478 5.92462 48.5378 3.74747C48.5279 1.57032 50.9279 1.02603 52.1291 1.02603V0.118896H39.9261Z" fill="#9F9FA0"/>
<path d="M52.9807 1.03189V0.156311L84.232 0.164048V1.10675H82.7217C81.2211 1.07597 79.5954 2.55607 78.9702 3.29997L49.3809 43.4802V34.1013L71.7962 3.37916C72.1241 1.70999 70.9144 1.11882 70.2686 1.03189H52.9807Z" fill="#9F9FA0"/>
<path d="M38.4821 86.8512V87.7267L7.2309 87.719V86.7763H8.74114C10.2418 86.8071 11.8674 85.327 12.4927 84.5831L42.082 44.4028V53.7817L19.6667 84.5039C19.3388 86.1731 20.5485 86.7642 21.1943 86.8512H38.4821Z" fill="#9F9FA0"/>
<path d="M84.2324 77.1662L78.3946 87.6372L53.0975 87.7267V86.8032C54.9971 86.8187 60.6496 86.8403 68.0627 86.8032C75.4757 86.7662 81.5297 80.1469 83.6301 76.8419L84.2324 77.1662Z" fill="#9F9FA0"/>
<path d="M7.30859 10.7278L13.1464 0.256847L38.4435 0.167297V1.09082C36.5439 1.07538 30.8914 1.05375 23.4784 1.09082C16.0653 1.12789 10.0113 7.74714 7.91091 11.0521L7.30859 10.7278Z" fill="#9F9FA0"/>
<path d="M32.4554 0.167297V1.06201C34.955 1.2714 35.7713 2.97183 35.867 3.79587C35.9067 29.7833 35.9621 82.2147 35.867 84.0406C35.772 85.8665 33.3874 86.4852 32.207 86.5663V87.7267H44.6818V86.5407H44.4258C41.9957 86.4861 41.067 84.8811 41.0671 84.0406C41.0713 58.1995 41.0771 5.97303 41.0671 3.79587C41.0572 1.61872 43.4572 1.07443 44.6584 1.07443V0.167297H32.4554Z" fill="black"/>
<path d="M45.6819 1.03189V0.156311L76.9332 0.164048V1.10675H75.4229C73.9223 1.07597 72.2966 2.55607 71.6714 3.29997L42.082 43.4802V34.1013L64.4974 3.37916C64.8253 1.70999 63.6156 1.11882 62.9698 1.03189H45.6819Z" fill="black"/>
<path d="M31.363 86.8512V87.7267L0.111755 87.719V86.7763H1.622C3.12263 86.8071 4.74831 85.327 5.37357 84.5831L34.9629 44.4028V53.7817L12.5475 84.5039C12.2197 86.1731 13.4293 86.7642 14.0751 86.8512H31.363Z" fill="black"/>
<path d="M0.111328 10.6794L5.94915 0.208446L31.2462 0.118896V1.04242C29.3466 1.02697 23.6942 1.00535 16.2811 1.04242C8.86802 1.07948 2.81402 7.69874 0.713648 11.0037L0.111328 10.6794Z" fill="black"/>
<path d="M76.9316 77.1662L71.0938 87.6372L45.7967 87.7267V86.8032C47.6963 86.8187 53.3488 86.8403 60.7619 86.8032C68.1749 86.7662 74.229 80.1469 76.3293 76.8419L76.9316 77.1662Z" fill="black"/>
<path d="M84.9413 15.6183H85.6773V27.0103H85.5973L76.7173 18.2583H76.6533V26.8183H75.9173V15.4263H75.9973L84.8773 24.1783H84.9413V15.6183ZM91.2711 15.6183H98.5031V16.4983H92.7271V20.5143H97.6871V21.2503H92.7271V25.9383H98.5031V26.8183H91.2711V15.6183ZM112.848 21.8263V26.8183H111.472V26.1623C111.067 26.3756 110.555 26.573 109.936 26.7543C109.317 26.925 108.608 27.0103 107.808 27.0103C106.741 27.0103 105.824 26.845 105.056 26.5143C104.288 26.173 103.653 25.725 103.152 25.1703C102.661 24.605 102.293 23.9703 102.048 23.2663C101.813 22.5516 101.696 21.8156 101.696 21.0583C101.696 20.173 101.851 19.3836 102.16 18.6903C102.469 17.9863 102.901 17.3943 103.456 16.9143C104.011 16.4343 104.667 16.0663 105.424 15.8103C106.192 15.5543 107.029 15.4263 107.936 15.4263C108.725 15.4263 109.408 15.517 109.984 15.6983C110.571 15.869 111.061 16.0823 111.456 16.3383C111.851 16.5943 112.16 16.8716 112.384 17.1703C112.619 17.4583 112.784 17.7196 112.88 17.9543H111.728C111.664 17.7303 111.52 17.5116 111.296 17.2983C111.083 17.0743 110.805 16.877 110.464 16.7063C110.123 16.5356 109.733 16.397 109.296 16.2903C108.859 16.1836 108.389 16.1303 107.888 16.1303C107.131 16.1303 106.464 16.253 105.888 16.4983C105.323 16.7436 104.843 17.0903 104.448 17.5383C104.053 17.9863 103.755 18.5196 103.552 19.1383C103.36 19.757 103.264 20.4343 103.264 21.1703C103.264 21.917 103.365 22.605 103.568 23.2343C103.781 23.853 104.096 24.3916 104.512 24.8503C104.928 25.2983 105.451 25.6503 106.08 25.9063C106.709 26.1623 107.445 26.2903 108.288 26.2903C108.928 26.2903 109.499 26.2156 110 26.0663C110.501 25.917 110.992 25.6876 111.472 25.3783V22.4823H109.68V21.8263H112.848ZM123.718 23.5223H118.198L116.79 26.8183H116.054L120.79 15.6183H121.59L126.806 26.8183H125.254L123.718 23.5223ZM123.382 22.8023L120.87 17.4103H120.806L118.502 22.8023H123.382ZM130.973 15.6183H138.205V16.4983H132.429V20.5143H137.389V21.2503H132.429V26.8183H130.973V15.6183ZM148.582 23.5223H143.062L141.654 26.8183H140.918L145.654 15.6183H146.454L151.67 26.8183H150.118L148.582 23.5223ZM148.246 22.8023L145.734 17.4103H145.67L143.366 22.8023H148.246ZM56.2295 55.6183H65.2535L58.1495 65.9383H65.5255V66.8183H55.8295L62.9975 56.4983H56.2295V55.6183ZM70.3258 55.6183H71.7818V66.8183H70.3258V55.6183ZM84.2479 63.5223H78.7279L77.3199 66.8183H76.5839L81.3199 55.6183H82.1199L87.3359 66.8183H85.7839L84.2479 63.5223ZM83.9119 62.8023L81.3999 57.4103H81.3359L79.0319 62.8023H83.9119ZM100.527 55.6183H101.263V67.0103H101.183L92.3027 58.2583H92.2387V66.8183H91.5027V55.4263H91.5827L100.463 64.1783H100.527V55.6183ZM113.08 63.5223H107.56L106.152 66.8183H105.416L110.152 55.6183H110.952L116.168 66.8183H114.616L113.08 63.5223ZM112.744 62.8023L110.232 57.4103H110.168L107.864 62.8023H112.744ZM127.689 66.8183V55.6183H129.145V65.9383H134.921V66.8183H127.689ZM139.714 55.6183H141.17V66.8183H139.714V55.6183ZM156.436 55.6183H157.172V67.0103H157.092L148.212 58.2583H148.148V66.8183H147.412V55.4263H147.492L156.372 64.1783H156.436V55.6183ZM168.99 63.5223H163.47L162.062 66.8183H161.326L166.062 55.6183H166.862L172.078 66.8183H170.526L168.99 63.5223ZM168.654 62.8023L166.142 57.4103H166.078L163.774 62.8023H168.654Z" fill="black"/>
</svg>
