<svg width="114" height="129" viewBox="0 0 114 129" fill="none" xmlns="http://www.w3.org/2000/svg">
<path d="M57.3109 0.535156V1.42987C59.8105 1.63926 60.6268 3.33969 60.7225 4.16373C60.7621 30.1512 60.8176 82.5826 60.7225 84.4085C60.6274 86.2343 58.2429 86.853 57.0625 86.9341V88.0946H69.5373V86.9085H69.2813C66.8512 86.8539 65.9225 85.249 65.9226 84.4085C65.9267 58.5674 65.9325 6.34088 65.9226 4.16373C65.9126 1.98658 68.3126 1.44229 69.5139 1.44229V0.535156H57.3109Z" fill="#9F9FA0"/>
<path d="M70.3655 1.44809V0.57251L101.617 0.580247V1.52295H100.107C98.6059 1.49217 96.9802 2.97227 96.3549 3.71617L66.7656 43.8964V34.5175L89.181 3.79536C89.5089 2.12619 88.2992 1.53502 87.6534 1.44809H70.3655Z" fill="#9F9FA0"/>
<path d="M55.8669 87.2675V88.1431L24.6157 88.1353V87.1926H26.1259C27.6265 87.2234 29.2522 85.7433 29.8775 84.9994L59.4668 44.8191V54.1981L37.0514 84.9202C36.7236 86.5894 37.9332 87.1806 38.579 87.2675H55.8669Z" fill="#9F9FA0"/>
<path d="M101.617 77.5825L95.7794 88.0535L70.4823 88.1431V87.2195C72.3819 87.235 78.0344 87.2566 85.4474 87.2195C92.8605 87.1825 98.9145 80.5632 101.015 77.2582L101.617 77.5825Z" fill="#9F9FA0"/>
<path d="M24.6934 11.144L30.5312 0.673046L55.8283 0.583496V1.50702C53.9287 1.49157 48.2762 1.46995 40.8631 1.50702C33.4501 1.54408 27.396 8.16334 25.2957 11.4683L24.6934 11.144Z" fill="#9F9FA0"/>
<path d="M49.8402 0.583496V1.47821C52.3397 1.6876 53.1561 3.38803 53.2518 4.21207C53.2914 30.1995 53.3469 82.6309 53.2518 84.4568C53.1567 86.2827 50.7722 86.9014 49.5918 86.9825V88.1429H62.0666V86.9569H61.8106C59.3805 86.9023 58.4517 85.2973 58.4519 84.4568C58.456 58.6157 58.4618 6.38922 58.4519 4.21207C58.4419 2.03492 60.8419 1.49063 62.0432 1.49063V0.583496H49.8402Z" fill="black"/>
<path d="M63.0667 1.44809V0.57251L94.3179 0.580247V1.52295H92.8077C91.3071 1.49217 89.6814 2.97227 89.0561 3.71617L59.4668 43.8964V34.5175L81.8821 3.79536C82.21 2.12619 81.0004 1.53502 80.3546 1.44809H63.0667Z" fill="black"/>
<path d="M48.7478 87.2675V88.1431L17.4965 88.1353V87.1926H19.0068C20.5074 87.2234 22.1331 85.7433 22.7583 84.9994L52.3477 44.8191V54.1981L29.9323 84.9202C29.6044 86.5894 30.8141 87.1806 31.4599 87.2675H48.7478Z" fill="black"/>
<path d="M17.4961 11.0957L23.3339 0.624706L48.631 0.535156V1.45868C46.7314 1.44323 41.0789 1.42161 33.6659 1.45868C26.2528 1.49574 20.1988 8.115 18.0984 11.42L17.4961 11.0957Z" fill="black"/>
<path d="M94.3164 77.5825L88.4786 88.0535L63.1815 88.1431V87.2195C65.0811 87.235 70.7336 87.2566 78.1466 87.2195C85.5597 87.1825 91.6137 80.5632 93.7141 77.2582L94.3164 77.5825Z" fill="black"/>
<path d="M11.4112 105.931H11.7792V111.627H11.7392L7.29918 107.251H7.26718V111.531H6.89918V105.835H6.93918L11.3792 110.211H11.4112V105.931ZM14.5761 105.931H18.1921V106.371H15.3041V108.379H17.7841V108.747H15.3041V111.091H18.1921V111.531H14.5761V105.931ZM25.3646 109.035V111.531H24.6766V111.203C24.4739 111.31 24.2179 111.408 23.9086 111.499C23.5992 111.584 23.2446 111.627 22.8446 111.627C22.3112 111.627 21.8526 111.544 21.4686 111.379C21.0846 111.208 20.7672 110.984 20.5166 110.707C20.2712 110.424 20.0872 110.107 19.9646 109.755C19.8472 109.398 19.7886 109.03 19.7886 108.651C19.7886 108.208 19.8659 107.814 20.0206 107.467C20.1752 107.115 20.3912 106.819 20.6686 106.579C20.9459 106.339 21.2739 106.155 21.6526 106.027C22.0366 105.899 22.4552 105.835 22.9086 105.835C23.3032 105.835 23.6446 105.88 23.9326 105.971C24.2259 106.056 24.4712 106.163 24.6686 106.291C24.8659 106.419 25.0206 106.558 25.1326 106.707C25.2499 106.851 25.3326 106.982 25.3806 107.099H24.8046C24.7726 106.987 24.7006 106.878 24.5886 106.771C24.4819 106.659 24.3432 106.56 24.1726 106.475C24.0019 106.39 23.8072 106.32 23.5886 106.267C23.3699 106.214 23.1352 106.187 22.8846 106.187C22.5059 106.187 22.1726 106.248 21.8846 106.371C21.6019 106.494 21.3619 106.667 21.1646 106.891C20.9672 107.115 20.8179 107.382 20.7166 107.691C20.6206 108 20.5726 108.339 20.5726 108.707C20.5726 109.08 20.6232 109.424 20.7246 109.739C20.8312 110.048 20.9886 110.318 21.1966 110.547C21.4046 110.771 21.6659 110.947 21.9806 111.075C22.2952 111.203 22.6632 111.267 23.0846 111.267C23.4046 111.267 23.6899 111.23 23.9406 111.155C24.1912 111.08 24.4366 110.966 24.6766 110.811V109.363H23.7806V109.035H25.3646ZM30.7996 109.883H28.0396L27.3356 111.531H26.9676L29.3356 105.931H29.7356L32.3436 111.531H31.5676L30.7996 109.883ZM30.6316 109.523L29.3756 106.827H29.3436L28.1916 109.523H30.6316ZM34.427 105.931H38.043V106.371H35.155V108.379H37.635V108.747H35.155V111.531H34.427V105.931ZM43.2315 109.883H40.4715L39.7675 111.531H39.3995L41.7675 105.931H42.1675L44.7755 111.531H43.9995L43.2315 109.883ZM43.0635 109.523L41.8075 106.827H41.7755L40.6235 109.523H43.0635ZM50.0157 105.931H54.5277L50.9757 111.091H54.6637V111.531H49.8157L53.3997 106.371H50.0157V105.931ZM57.0639 105.931H57.7919V111.531H57.0639V105.931ZM64.0249 109.883H61.2649L60.5609 111.531H60.1929L62.5609 105.931H62.9609L65.5689 111.531H64.7929L64.0249 109.883ZM63.8569 109.523L62.6009 106.827H62.5689L61.4169 109.523H63.8569ZM72.1643 105.931H72.5323V111.627H72.4923L68.0523 107.251H68.0203V111.531H67.6523V105.835H67.6923L72.1323 110.211H72.1643V105.931ZM78.4412 109.883H75.6812L74.9772 111.531H74.6092L76.9772 105.931H77.3772L79.9852 111.531H79.2092L78.4412 109.883ZM78.2732 109.523L77.0172 106.827H76.9852L75.8332 109.523H78.2732ZM85.7454 111.531V105.931H86.4734V111.091H89.3614V111.531H85.7454ZM91.7579 105.931H92.4859V111.531H91.7579V105.931ZM100.119 105.931H100.487V111.627H100.447L96.007 107.251H95.975V111.531H95.607V105.835H95.647L100.087 110.211H100.119V105.931ZM106.396 109.883H103.636L102.932 111.531H102.564L104.932 105.931H105.332L107.94 111.531H107.164L106.396 109.883ZM106.228 109.523L104.972 106.827H104.94L103.788 109.523H106.228Z" fill="black"/>
</svg>
